<svg xmlns="http://www.w3.org/2000/svg" width="30" height="30" viewBox="0 0 30 30" fill="none">
<path d="M15.0008 30.0001C23.2847 30.0001 30.0001 23.2847 30.0001 15.0008C30.0001 6.7169 23.2847 0.00146484 15.0008 0.00146484C6.7169 0.00146484 0.00146484 6.7169 0.00146484 15.0008C0.00146484 23.2847 6.7169 30.0001 15.0008 30.0001Z" fill="#D62427"/>
<path d="M0.000976562 15.0001C0.000976562 6.71515 6.71664 0 15.0006 0C23.2851 0 23.2851 30 15.0006 30C6.71682 29.9997 0.000976562 23.2841 0.000976562 15.0001Z" fill="#DC3027"/>
<path d="M8.65245 4.12988L9.35235 6.28513H11.6186L9.7853 7.61641L10.4856 9.77165L8.65245 8.43993L6.81938 9.77165L7.51966 7.61641L5.68652 6.28513H7.95216L8.65245 4.12988Z" fill="#F8D12E"/>
<path d="M13.9387 2.90381L13.718 3.65982L14.3684 4.10341L13.5816 4.1264L13.3613 4.88286L13.0954 4.14128L12.3081 4.16522L12.9312 3.68326L12.6653 2.94219L13.3161 3.38578L13.9387 2.90381Z" fill="#F8D12E"/>
<path d="M13.9387 9.67432L13.718 10.4301L14.3684 10.8737L13.5816 10.8969L13.3613 11.6531L13.0954 10.9116L12.3081 10.9357L12.9312 10.4538L12.6653 9.7127L13.3161 10.1558L13.9387 9.67432Z" fill="#F8D12E"/>
<path d="M15.8576 4.96729L15.6369 5.7233L16.2876 6.16689L15.5006 6.19032L15.28 6.94634L15.0141 6.20476L14.2271 6.2287L14.8497 5.74673L14.5841 5.00567L15.2351 5.44926L15.8576 4.96729Z" fill="#F8D12E"/>
<path d="M15.8576 7.72754L15.6369 8.48355L16.2876 8.92714L15.5006 8.95032L15.28 9.70659L15.0141 8.96527L14.2271 8.98921L14.8497 8.50724L14.5841 7.76611L15.2351 8.20926L15.8576 7.72754Z" fill="#F8D12E"/>
</svg>