<?xml version="1.0" encoding="utf-8"?>
<!-- Generator: Adobe Illustrator 22.0.0, SVG Export Plug-In . SVG Version: 6.00 Build 0)  -->
<svg version="1.1" xmlns="http://www.w3.org/2000/svg" xmlns:xlink="http://www.w3.org/1999/xlink" x="0px" y="0px"
	 viewBox="0 0 750 500" style="enable-background:new 0 0 750 500;" xml:space="preserve">
<style type="text/css">
	.st0{opacity:0.55;fill:#D9E8FF;}
	.st1{opacity:0.5;fill:#B3C9FF;}
	.st2{fill:#ACC9F9;}
	.st3{opacity:0.25;}
	.st4{fill:none;stroke:#FFFFFF;stroke-linecap:round;stroke-linejoin:round;stroke-miterlimit:10;}
	.st5{fill:#BDD0FF;}
	.st6{fill:#B3C9FF;}
	.st7{fill:#FFFFFF;}
	.st8{opacity:0.55;fill:#DBE0FE;}
	.st9{fill:#DBE0FE;}
	.st10{fill:url(#SVGID_1_);}
	.st11{opacity:0.75;fill:#D62984;}
	.st12{fill:url(#SVGID_2_);}
	.st13{opacity:0.25;fill:#5890F4;}
	.st14{fill:url(#SVGID_3_);}
	.st15{fill:#FFCCB0;}
	.st16{fill:#7C3327;}
	.st17{fill:#F4713D;}
	.st18{fill:#E25833;}
	.st19{fill:#30334C;}
	.st20{fill:#262A3F;}
	.st21{fill:#DB856E;}
	.st22{fill:#3377FF;}
	.st23{fill:#6490FF;}
	.st24{fill:#2660EF;}
	.st25{fill:#ED9C80;}
	.st26{fill:#222B70;}
	.st27{fill:url(#SVGID_4_);}
	.st28{fill:url(#SVGID_5_);}
	.st29{fill:url(#SVGID_6_);}
	.st30{clip-path:url(#SVGID_8_);}
	.st31{fill:#BDD5FF;}
	.st32{fill:url(#SVGID_9_);}
	.st33{fill:url(#SVGID_10_);}
</style>
<g id="BACKGROUND">
</g>
<g id="OBJECTS">
	<path class="st0" d="M230.9,399.9c0,5-45.7,9.1-102,9.1c-56.3,0-102-4.1-102-9.1c0-5,45.7-9.1,102-9.1
		C185.2,390.8,230.9,394.9,230.9,399.9z"/>
	<path class="st0" d="M579.8,415.3c0,5-83.7,9.1-187,9.1c-103.3,0-187-4.1-187-9.1c0-5,83.7-9.1,187-9.1
		C496.1,406.2,579.8,410.3,579.8,415.3z"/>
	<path class="st0" d="M732.6,451.8c0,5-53.2,9.1-118.8,9.1S495,456.8,495,451.8c0-5,53.2-9.1,118.8-9.1S732.6,446.7,732.6,451.8z"/>
	<path class="st0" d="M495,442.7c0,2.7-10.6,4.8-23.8,4.8c-13.1,0-23.8-2.2-23.8-4.8s10.6-4.8,23.8-4.8
		C484.3,437.9,495,440.1,495,442.7z"/>
	<path class="st1" d="M528.2,177.5c0.4-3.1,0.5-6.2,0.2-9.4c-0.3-3.2-0.9-6.3-1.9-9.2l-11.6,2.7c-1.1-3.2-2.7-6.1-4.7-8.7l8.9-7.7
		c-4-5-9-9-14.7-12l-6.2,9.9c-3-1.4-6.3-2.4-9.7-2.9l0.7-11.6c-3.1-0.4-6.4-0.4-9.6-0.2c-3.3,0.3-6.4,0.9-9.5,1.8l2.8,11.3
		c-3.3,1.1-6.3,2.6-9,4.6l-7.9-8.6c-5.1,3.9-9.3,8.8-12.3,14.3l10.2,6.1c-1.5,2.9-2.5,6.1-3,9.4l-11.9-0.6c-0.4,3.1-0.5,6.2-0.2,9.4
		c0.3,3.2,0.9,6.3,1.9,9.2l11.6-2.7c1.1,3.2,2.7,6.1,4.7,8.7l-8.9,7.7c4,5,9,9,14.7,12l6.2-9.9c3,1.4,6.3,2.4,9.7,2.9l-0.7,11.6
		c3.1,0.4,6.4,0.4,9.6,0.2c3.3-0.3,6.4-0.9,9.5-1.8l-2.8-11.3c3.3-1.1,6.3-2.6,9-4.6l7.9,8.6c5.1-3.9,9.3-8.8,12.3-14.3l-10.2-6.1
		c1.5-2.9,2.5-6.1,3-9.4L528.2,177.5z M485.1,189.9c-10.1,0.9-19.1-6.4-20-16.2c-0.9-9.8,6.5-18.6,16.7-19.5
		c10.1-0.9,19.1,6.4,20,16.2C502.7,180.3,495.3,189,485.1,189.9z"/>
	<path class="st1" d="M454.2,103.7c0.2-1.8,0.3-3.7,0.1-5.6c-0.2-1.9-0.6-3.7-1.1-5.5l-6.9,1.6c-0.7-1.9-1.6-3.6-2.8-5.2l5.3-4.6
		c-2.4-2.9-5.3-5.4-8.7-7.1l-3.7,5.9c-1.8-0.9-3.7-1.5-5.7-1.7l0.4-6.9c-1.9-0.2-3.8-0.3-5.7-0.1c-1.9,0.2-3.8,0.5-5.6,1.1l1.7,6.7
		c-1.9,0.6-3.7,1.6-5.3,2.7l-4.7-5.1c-3,2.3-5.5,5.2-7.3,8.5l6,3.6c-0.9,1.7-1.5,3.6-1.8,5.6l-7.1-0.4c-0.2,1.8-0.3,3.7-0.1,5.6
		c0.2,1.9,0.6,3.7,1.1,5.5l6.9-1.6c0.7,1.9,1.6,3.6,2.8,5.2l-5.3,4.6c2.4,2.9,5.3,5.4,8.7,7.1l3.7-5.9c1.8,0.9,3.7,1.5,5.7,1.7
		l-0.4,6.9c1.9,0.2,3.8,0.3,5.7,0.1c1.9-0.2,3.8-0.5,5.6-1.1l-1.7-6.7c1.9-0.6,3.7-1.6,5.3-2.7l4.7,5.1c3-2.3,5.5-5.2,7.3-8.5
		l-6-3.6c0.9-1.7,1.5-3.6,1.8-5.6L454.2,103.7z M428.7,111.1c-6,0.5-11.3-3.8-11.9-9.6c-0.5-5.8,3.9-11,9.9-11.5
		c6-0.5,11.3,3.8,11.9,9.6C439.1,105.4,434.7,110.6,428.7,111.1z"/>
	<g>
		<g>
			<path class="st2" d="M536.6,327.2c5.6-6.9,11.4-14.1,13.3-22.7c1.7-8,4.1-16.7,3.8-24.8c-0.3-8.1,1.3-16.3,4-24
				c8.7-24.1,19-20.1,22.7-17.8c3.6,2.3,4.9,6.6,4.3,13.1c-0.5,5.3-7.3,29.4,1.3,26.8c10.1-3.1,13-28.8,15.6-37.2
				c3.9-12.5,11-25.6,22.2-33.3c5.5-3.8,13.2-6.1,18.9-2.5c3.4,2.2,5.2,6,6.1,9.9c2.5,11.6-3,22.7-8.8,32.5
				c-2.4,4.1-20.2,22.2-7.4,21.8c3.1-0.1,30.6-16.2,30.5,3.9c0,7.1-9,13.3-22.9,20.7c-8.7,4.6-40,15.7-39.5,23.6
				c0.5,7.9,18.4-2.5,14.6,11.7c-2.1,7.9-13.7,12.4-21.5,14.6c-3.7,1-7.6,1.3-11.2,2.6c-4.3,1.5-9.8,5.7-7.4,10.7
				c1.1,2.2,3.6,3.5,4.6,5.8c1,2.3,0.3,5-1.3,6.9c-1.6,1.9-3.9,3.2-6.2,4.2c-14.9,6.6-32.3,5.8-47.8,0.8
				c-15.5-5-29.3-13.9-42.4-23.4"/>
		</g>
		<g class="st3">
			<path class="st4" d="M633.1,217.3c0,0-27.5,82.2-86.7,128.4"/>
			<path class="st4" d="M650,275.7c0,0-32.2,18.7-56.7,19"/>
			<path class="st4" d="M574.6,247.8c-3.2,13.1-9.2,49.9,1.4,69.3"/>
			<path class="st4" d="M604.3,330.4c0,0-12.8,8.3-48.9,7.9"/>
			<path class="st4" d="M572.6,364c0,0-18.8,0.9-34-10.4"/>
		</g>
	</g>
	<g>
		<g>
			<path class="st5" d="M652.7,379.2c-6.5-21.9-1.7-45.5,6-67.1c1.9-5.2,4-10.5,8-14.4c2-2,4.8-3.6,7.7-3.1c4.1,0.8,5.9,5.6,6.4,9.7
				c2.9,25.8-14.5,49.5-19,75.1"/>
		</g>
		<g>
			<path class="st5" d="M634.1,368.2c-1.3-6.5-3.1-13-6.2-18.8c-3.2-5.9-7.8-11.1-13.8-14.2c-2.7-1.4-6.2-2.2-8.5-0.2
				c-2.5,2.1-1.7,6.1-0.2,9c8,15.9,28.6,23,36.4,38.9"/>
		</g>
		<g>
			<path class="st5" d="M643.5,381.2c-5.1-9.3-10-18.7-12.8-28.8c-2.8-10.1-3.4-21.1,0.1-31c1.1-3.1,3.8-6.6,6.9-5.5
				c1.2,0.4,2,1.3,2.8,2.3c5.9,7.5,8.1,17.1,9.2,26.5c1.1,9.4,1.1,18.9,3.2,28.1c0.3,1.4,0.7,2.8,1.7,3.8c1,1,2.8,1.5,3.9,0.6
				c0.6-0.5,0.9-1.3,1.2-2c1.3-4.1,22.2-46.3,41.1-49.3c1.5-0.2,3.1-0.4,4.6-0.2c23.7,3.8-29.7,52.1-30.1,59.3
				c19.3-16.1,23.4-19.1,32.2-20.7c6.8-1.2,18.6,4.7,14.7,12.7c-2.7,5.6-9.4,8.1-15.6,9.3c-6.8,1.3-13.8,1.7-20.4,3.6
				c-6.7,1.8-13.2,5.4-16.6,11.3"/>
		</g>
	</g>
	<g>
		<g>
			<path class="st2" d="M236.8,282.7c-19.1-9.8-7.8-27.8-10.7-39.6c-4.7-19.4-9.9-23.3-20.8-19.5c-5.3,1.9-8.3,9.4-9.5,14.3
				c-1.9,7.8-0.5,15.8,0.6,23.6c0.9,6.7,5,21.2-3.2,23.8c-8.2,2.6-9.5-8.1-19.5-15.8c-4.5-3.5-16.6-4.9-19.3,3.7
				c-4.8,15.3,2.6,22.5,39.7,42.7c6.3,3.4,20,7.1,19.2,10.5c-0.8,3.4-10.4-0.7-17.6,1.7c-11.5,3.8-6.3,10.9-2.3,13.2
				c32.2,18.1,58.5,10.2,71.1,15.8c5.5,2.5,9.1,7.6,13.4,11.7c9.5,9.2,13.1,7.5,26.4,7.2c7.8-0.2,15.8-2.3,21.7-7.4
				c2.4-2.1,4.5-5.2,3.4-8.1c-0.7-1.9-2.4-3.1-4.2-4.1c-12-7.2-26.2-10.4-38.5-17.2c-18.6-10.2-32.1-29-35.5-49.5"/>
		</g>
		<g class="st3">
			<path class="st4" d="M209.5,236.6c-0.1,5.1,1.1,10.1,2.3,15.1c4,16.9,8.1,33.9,16.1,49.4c10.5,20.2,27.1,36.8,43.9,52.4
				c5.9,5.5,12.1,11.1,19.6,14.2"/>
			<path class="st4" d="M164.2,282.7c18.9,18.1,45.3,26.7,71.3,31.9"/>
			<path class="st4" d="M205.8,337.4c14.5,2.9,43.5,9.3,56.2,6.8"/>
		</g>
	</g>
	<path class="st6" d="M629.6,90.6l9.5-6.9c-4.6-7.1-10.8-13.1-18-17.6l-7,9.2c-4-2.4-8.5-4.2-13.2-5.3l1.7-11.4
		c-4.1-0.9-8.4-1.4-12.8-1.4s-8.7,0.5-12.8,1.4l1.7,11.4c-4.7,1.1-9.1,2.9-13.2,5.3l-7-9.2c-7.3,4.5-13.4,10.5-18,17.6l9.5,6.9
		c-2.5,3.9-4.3,8.2-5.5,12.8l-11.7-1.7c-0.9,4-1.4,8.2-1.4,12.4c0,4.3,0.5,8.4,1.4,12.4l11.7-1.7c1.1,4.6,3,8.9,5.5,12.8l-9.5,6.9
		c4.6,7.1,10.8,13.1,18,17.6l7-9.2c4,2.4,8.5,4.2,13.2,5.3l-1.7,11.4c4.1,0.9,8.4,1.4,12.8,1.4c4.4,0,8.7-0.5,12.8-1.4l-1.7-11.4
		c4.7-1.1,9.1-2.9,13.2-5.3l7,9.2c7.3-4.5,13.4-10.5,18-17.6l-9.5-6.9c2.5-3.9,4.3-8.2,5.5-12.8l11.7,1.7c0.9-4,1.4-8.2,1.4-12.4
		c0-4.3-0.5-8.4-1.4-12.4l-11.7,1.7C633.9,98.8,632.1,94.5,629.6,90.6z M589.8,144.4c-17.1,0-31-13.5-31-30.2s13.9-30.2,31-30.2
		c17.1,0,31,13.5,31,30.2S606.9,144.4,589.8,144.4z"/>
	<path class="st6" d="M259.2,153.1l4-5.6c-3.9-3.1-8.5-5.3-13.5-6.5l-2.2,6.4c-2.7-0.6-5.5-0.8-8.4-0.6l-1.2-6.7
		c-2.5,0.2-4.9,0.7-7.4,1.5c-2.5,0.8-4.7,1.9-6.9,3.1l3.1,6c-2.4,1.5-4.5,3.3-6.3,5.4l-5.7-3.9c-3.2,3.8-5.5,8.3-6.7,13.1l6.6,2.1
		c-0.6,2.6-0.8,5.4-0.6,8.2l-6.8,1.2c0.3,2.4,0.8,4.8,1.6,7.2c0.8,2.4,1.9,4.6,3.2,6.7l6.2-3.1c1.5,2.4,3.4,4.4,5.5,6.2l-4,5.6
		c3.9,3.1,8.5,5.3,13.5,6.5l2.2-6.4c2.7,0.6,5.5,0.8,8.4,0.6l1.2,6.7c2.5-0.2,4.9-0.7,7.4-1.5s4.7-1.9,6.9-3.1l-3.1-6
		c2.4-1.5,4.5-3.3,6.3-5.4l5.7,3.9c3.2-3.8,5.5-8.3,6.7-13.1l-6.6-2.1c0.6-2.6,0.8-5.4,0.6-8.2l6.8-1.2c-0.3-2.4-0.8-4.8-1.6-7.2
		c-0.8-2.4-1.9-4.6-3.2-6.7l-6.2,3.1C263.2,157,261.3,154.9,259.2,153.1z M247,189.7c-9.2,3-19.1-1.8-22.2-10.8
		c-3.1-8.9,1.9-18.6,11.1-21.6c9.2-3,19.1,1.8,22.2,10.8C261.2,177.1,256.2,186.7,247,189.7z"/>
	<g>
		<path class="st7" d="M547.2,415.3H232.7V173.6c0-5,4-9,9-9h296.5c5,0,9,4,9,9V415.3z"/>
		<path class="st8" d="M358.3,396.4H257.6c-1.1,0-2.1-0.9-2.1-2.1v-46.5c0-1.1,0.9-2.1,2.1-2.1h100.7c1.1,0,2.1,0.9,2.1,2.1v46.5
			C360.4,395.5,359.4,396.4,358.3,396.4z"/>
		<path class="st8" d="M441.8,212.1H256.7c-0.6,0-1.2-0.5-1.2-1.2v-6.7c0-0.6,0.5-1.2,1.2-1.2h185.2c0.6,0,1.2,0.5,1.2,1.2v6.7
			C443,211.6,442.5,212.1,441.8,212.1z"/>
		<path class="st8" d="M441.8,230.8H256.7c-0.6,0-1.2-0.5-1.2-1.2v-6.7c0-0.6,0.5-1.2,1.2-1.2h185.2c0.6,0,1.2,0.5,1.2,1.2v6.7
			C443,230.3,442.5,230.8,441.8,230.8z"/>
		<path class="st8" d="M441.8,249.6H256.7c-0.6,0-1.2-0.5-1.2-1.2v-6.7c0-0.6,0.5-1.2,1.2-1.2h185.2c0.6,0,1.2,0.5,1.2,1.2v6.7
			C443,249.1,442.5,249.6,441.8,249.6z"/>
		<path class="st8" d="M441.8,268.4H256.7c-0.6,0-1.2-0.5-1.2-1.2v-6.7c0-0.6,0.5-1.2,1.2-1.2h185.2c0.6,0,1.2,0.5,1.2,1.2v6.7
			C443,267.8,442.5,268.4,441.8,268.4z"/>
		<path class="st8" d="M441.8,287.1H256.7c-0.6,0-1.2-0.5-1.2-1.2v-6.7c0-0.6,0.5-1.2,1.2-1.2h185.2c0.6,0,1.2,0.5,1.2,1.2v6.7
			C443,286.6,442.5,287.1,441.8,287.1z"/>
		<path class="st8" d="M441.8,305.9H256.7c-0.6,0-1.2-0.5-1.2-1.2V298c0-0.6,0.5-1.2,1.2-1.2h185.2c0.6,0,1.2,0.5,1.2,1.2v6.7
			C443,305.4,442.5,305.9,441.8,305.9z"/>
		<g>
			<polygon class="st9" points="444.2,385.2 446,388.9 450.2,389.5 447.2,392.3 447.9,396.4 444.2,394.5 440.4,396.4 441.2,392.3 
				438.1,389.5 442.3,388.9 			"/>
			<polygon class="st9" points="462.7,385.2 464.6,388.9 468.7,389.5 465.7,392.3 466.4,396.4 462.7,394.5 459,396.4 459.7,392.3 
				456.7,389.5 460.8,388.9 			"/>
			<polygon class="st9" points="481.2,385.2 483.1,388.9 487.3,389.5 484.2,392.3 484.9,396.4 481.2,394.5 477.5,396.4 478.2,392.3 
				475.2,389.5 479.3,388.9 			"/>
			<polygon class="st9" points="499.7,385.2 501.6,388.9 505.8,389.5 502.8,392.3 503.5,396.4 499.7,394.5 496,396.4 496.7,392.3 
				493.7,389.5 497.9,388.9 			"/>
			<polygon class="st9" points="518.2,385.2 520.1,388.9 524.3,389.5 521.3,392.3 522,396.4 518.2,394.5 514.5,396.4 515.2,392.3 
				512.2,389.5 516.4,388.9 			"/>
		</g>
		<g>
			<linearGradient id="SVGID_1_" gradientUnits="userSpaceOnUse" x1="316.991" y1="299.2521" x2="467.9028" y2="299.2521">
				<stop  offset="0" style="stop-color:#F84E49"/>
				<stop  offset="1" style="stop-color:#EF3598"/>
			</linearGradient>
			<path class="st10" d="M426.7,241.6c-22.2-7.2-34.2-20.5-34.2-20.5s-12,13.3-34.2,20.5c-19.9,6.4-41.2,5.7-41.2,5.7
				s0,70.4,24.8,98.8c23.3,26.6,50.6,31.3,50.6,31.3s27.3-4.7,50.6-31.3c24.8-28.4,24.8-98.8,24.8-98.8S446.6,248,426.7,241.6z"/>
			<path class="st11" d="M389.9,366.2c-6.2-1.6-25.4-8.1-42.1-27.2c-15.3-17.5-20.6-57.9-21.8-81.1c8.8-0.6,21.2-2,33.2-5.9
				c13.8-4.4,24.1-11,30.7-16.1c6.6,5.1,16.9,11.7,30.7,16.1c12.1,3.9,24.4,5.4,33.2,5.9c-1.2,23.2-6.5,63.5-21.8,81.1
				C415.3,358.1,396.1,364.5,389.9,366.2z"/>
			<linearGradient id="SVGID_2_" gradientUnits="userSpaceOnUse" x1="329.8034" y1="301.4233" x2="450.0663" y2="301.4233">
				<stop  offset="0" style="stop-color:#F84E49"/>
				<stop  offset="1" style="stop-color:#EF3598"/>
			</linearGradient>
			<path class="st12" d="M389.9,362.6c-6.6-1.8-23.8-8.1-39.4-25.9c-14.1-16.1-19.3-52.5-20.8-75.6c8.6-0.7,19.7-2.3,30.6-5.8
				c12.8-4.1,22.7-10,29.6-15c6.8,5,16.7,10.8,29.5,15c10.8,3.5,21.9,5.1,30.6,5.8c-1.5,23.1-6.7,59.6-20.8,75.6
				C413.8,354.5,396.5,360.7,389.9,362.6z"/>
			<g>
				<g>
					<path class="st7" d="M402.6,286.6c0,6.8-5.7,12.3-12.7,12.3c-7,0-12.7-5.5-12.7-12.3c0-6.8,5.7-12.3,12.7-12.3
						C396.9,274.3,402.6,279.8,402.6,286.6z"/>
					<path class="st7" d="M389.9,325L389.9,325c-2.9,0-5.3-2.3-5.3-5.2v-28.4c0-2.9,2.4-5.2,5.3-5.2l0,0c2.9,0,5.3,2.3,5.3,5.2v28.4
						C395.3,322.7,392.9,325,389.9,325z"/>
				</g>
			</g>
			<path class="st13" d="M424.2,241.6c-22.2-7.2-34.2-20.5-34.2-20.5v156.3c0,0,27.3-4.7,50.6-31.3c24.8-28.4,24.8-98.8,24.8-98.8
				S444.1,248,424.2,241.6z"/>
		</g>
		<linearGradient id="SVGID_3_" gradientUnits="userSpaceOnUse" x1="232.6601" y1="177.5855" x2="547.2095" y2="177.5855">
			<stop  offset="0" style="stop-color:#F84E49"/>
			<stop  offset="1" style="stop-color:#EF3598"/>
		</linearGradient>
		<path class="st14" d="M529.1,164.5H250.8c-10,0-18.1,7.9-18.1,17.7v8.4h314.5v-8.4C547.2,172.5,539.1,164.5,529.1,164.5z"/>
		<g>
			<path class="st7" d="M500.5,177.6c0,1.6-1.3,2.8-2.9,2.8c-1.6,0-2.9-1.3-2.9-2.8c0-1.6,1.3-2.8,2.9-2.8
				C499.2,174.8,500.5,176,500.5,177.6z"/>
			<path class="st7" d="M515,177.6c0,1.6-1.3,2.8-2.9,2.8s-2.9-1.3-2.9-2.8c0-1.6,1.3-2.8,2.9-2.8S515,176,515,177.6z"/>
			<path class="st7" d="M529.4,177.6c0,1.6-1.3,2.8-2.9,2.8c-1.6,0-2.9-1.3-2.9-2.8c0-1.6,1.3-2.8,2.9-2.8
				C528.1,174.8,529.4,176,529.4,177.6z"/>
		</g>
	</g>
	<g>
		<path class="st2" d="M99.7,395.3c0,0-59.5,0-73.9,0c-14.4,0-12.1-16.6,28-9.2c-9.8-4.4-9.9-10.2-9.1-11.8c0.8-1.4,3.6-2.4,5.2-2.2
			c5.1,0.4,9,3.5,13.5,5.9c-8.1-5.1-13.1-14.5-12.8-23.9c0.1-2.6,0.7-5.3,2.6-7.1c2.2-2,5.8-3.3,8.7-2.7c5.4,1,15.4,9.8,19.3,13.6
			c-20.2-18.1-27.9-46.6-15-53.1c21.8-11,38.3,51.1,38.3,51.1s-10.8-46.6,7.3-46.9c18.2-0.3,3.4,54.2,3.4,54.2"/>
	</g>
	<path class="st7" d="M696.9,389.1c-3.6,0-7.1,0.6-10.3,1.7c-0.8-26.3-22.9-47.4-50.1-47.4c-27.7,0-50.2,21.9-50.2,48.8
		c0,1.2,0.1,2.5,0.2,3.7c-4.8-7.9-13.7-13.3-23.9-13.3c-15.3,0-27.8,12.1-27.8,27c0,2.1,0.3,4.2,0.7,6.1c-2.9-1.6-6.2-2.4-9.7-2.4
		c-11,0-19.9,8.7-19.9,19.4c0,10.7,8.9,19.4,19.9,19.4c11,0,157,0,171,0c17.9,0,32.4-14.1,32.4-31.5S714.8,389.1,696.9,389.1z"/>
	<path class="st7" d="M93.2,361.7c2.4,0,4.7,0.4,6.8,1.1c0.5-17.3,15.1-31.2,32.9-31.2c18.2,0,33,14.4,33,32.1c0,0.8,0,1.6-0.1,2.4
		c3.2-5.2,9-8.7,15.7-8.7c10.1,0,18.3,8,18.3,17.8c0,1.4-0.2,2.7-0.5,4c1.9-1,4.1-1.6,6.4-1.6c7.2,0,13.1,5.7,13.1,12.7
		c0,7-5.9,12.7-13.1,12.7c-7.2,0-103.2,0-112.5,0c-11.8,0-21.3-9.3-21.3-20.7S81.4,361.7,93.2,361.7z"/>
	<path class="st9" d="M546.3,252.1l7.4-2.6c-1.5-5.4-4.3-10.4-8-14.7l-6.3,4.5c-2.1-2.3-4.6-4.3-7.4-5.9l3.4-6.9
		c-2.5-1.4-5.1-2.5-7.9-3.3c-2.8-0.8-5.6-1.3-8.4-1.5l-1.2,7.6c-3.2-0.2-6.4,0.1-9.5,0.9l-2.7-7.2c-5.5,1.5-10.7,4.2-15.1,7.8
		l4.7,6.2c-2.4,2-4.4,4.4-6.1,7.2l-7.1-3.3c-1.4,2.4-2.6,4.9-3.4,7.7c-0.9,2.7-1.4,5.5-1.6,8.2l7.8,1.2c-0.2,3.1,0.1,6.3,0.9,9.2
		l-7.4,2.6c1.5,5.4,4.3,10.4,8,14.7l6.3-4.5c2.1,2.3,4.6,4.3,7.4,5.9l-3.4,6.9c2.5,1.4,5.1,2.5,7.9,3.3c2.8,0.8,5.6,1.3,8.4,1.5
		l1.2-7.6c3.2,0.2,6.4-0.1,9.5-0.9l2.7,7.2c5.5-1.5,10.7-4.2,15.1-7.8l-4.7-6.2c2.4-2,4.4-4.4,6.1-7.2l7.1,3.3
		c1.4-2.4,2.6-4.9,3.4-7.7c0.9-2.7,1.4-5.5,1.6-8.2l-7.8-1.2C547.4,258.2,547.1,255.1,546.3,252.1z M511.1,275.7
		c-9.1-2.7-14.3-12.1-11.5-21c2.8-8.9,12.4-13.9,21.6-11.2c9.1,2.7,14.3,12.1,11.5,21C529.8,273.4,520.2,278.4,511.1,275.7z"/>
	<g>
		<g>
			<path class="st2" d="M567,478.8c0,2.7-17.6,5-39.4,5c-21.8,0-39.4-2.2-39.4-5c0-2.7,17.6-5,39.4-5
				C549.3,473.9,567,476.1,567,478.8z"/>
		</g>
		<g>
			<path class="st15" d="M547.3,466c0,0,0.5,5.3,0.7,6.6c0.2,1.3,4.6,1.2,5.1,0.4s0.3-7,0.3-7"/>
			<path class="st16" d="M554.4,474.2c0.1,1.4-0.1,3.7-0.1,3.7l-5.1,0.3l-0.3-0.8c0,0-1.6,0.9-2.9,1l-4.3,0.3
				c-3.1,0.2-5-0.1-5.1-0.6c-0.5-2.2,3.3-2.4,4.3-2.4c2.8-0.2,5.8-1.7,6.3-3.1c0.4-1,0.2-1.3,0.8-1.1c0,0,0.5,0.1,0.9,0.7
				c0.6,0.9,1.7,1.5,2.8,1.2c0.6-0.1,1.2-0.4,1.7-0.9C553.3,472.5,554.3,472.8,554.4,474.2z"/>
		</g>
		<g>
			<path class="st15" d="M512.6,467.7c0,0,0,3.8,0.2,5.1c0.3,1.3,4.7,0.9,5.1,0.1c0.4-0.8-0.1-7-0.1-7"/>
			<path class="st16" d="M519.2,474.3c0.1,1.4,0.1,4.1,0.1,4.1l-4.5,1.1l-0.6-0.7c0,0-1.3,1.1-2.7,1.4c-1,0.3-3.2,0.5-4.3,0.4
				c-3.7-0.2-6.3-1.4-6.4-1.9c-0.5-2.2,4.4-1.9,5.4-2c2.9-0.2,4.9-2.3,5.4-3.7c0.4-1,0.2-1.3,0.8-1.1c0,0,0.6,0.1,1,0.7
				c0.6,0.9,1.7,1.5,2.9,1.2c0.6-0.2,1.3-0.4,1.7-1C518.1,472.6,519.1,472.8,519.2,474.3z"/>
		</g>
		<path class="st17" d="M539.8,318.2c0.4-0.5,0.7,5.5,6.9,8.5c6.2,3,16.2,1.4,19.4,0.2c5-1.9,3.4-33.4-2.5-43.5
			c-1.4-2.4-6.7-3.5-10-4.2c-0.9,8.5,2.4,29.4,7.4,38.1C560.7,318.9,539.8,318.2,539.8,318.2z"/>
		<g>
			<path class="st18" d="M564,319.6c1.5-2-0.7-23.8-0.6-27.2l-6.9,12.2c1.2,5-3.9,13.8-10.1,13.7l-0.9,1.2
				C549.1,320.4,562.5,321.6,564,319.6z"/>
		</g>
		<path class="st19" d="M536.6,400.9c0.4,7.7,1.1,15.6,2.2,21.1c0.9,4.7,11.8,1.9,11.6-2.3c-0.4-5.9,2.3-16.7,4.7-44.8
			c0.3-4.2,2.3-4.7,3.6-13.5c1.3-8.8-3.7-17.9-3.7-17.9l-18.6-1.2l-0.3,25.5l-0.1,8.6C536.1,376.6,536,388.4,536.6,400.9z"/>
		<path class="st19" d="M550.4,418.8c0,0,3.5,6.4,4,12.6c0.8,9-0.2,38.5-0.2,38.5s-4.8,1-7.3,0.3c0,0-8.6-49.3-9-55
			C537.5,409.5,550.4,418.8,550.4,418.8z"/>
		<path class="st20" d="M536.6,400.9c1.3-4.1,3.9-12.1,6.1-16.5c3-6.3,4.8-10,4.8-10c10.7-10.9,1.1-24,1.1-24s-5.3,7-5.9,7.7
			c-0.6,0.7-4,6.6-6.6,9.9l-0.1,8.6C536.1,376.6,536,388.4,536.6,400.9z"/>
		<path class="st19" d="M521.2,421.6c-0.4-6.6,4.5-14.7,4.5-14.7s-14.2-10.6-14.4-13.1c0,0-2,15.5-2.8,20.3c-1.3,8.3,3,55.8,3,55.8
			s3.1,0.8,7.2,0.1c0,0,0.8-18.3,3.8-30.8C524,433.5,521.7,423.3,521.2,421.6z"/>
		<path class="st19" d="M522.4,343.6c-5.6,12.1-11.6,51-13,64.4c-0.6,5.7,4.3,14.3,9.9,9.2c6.8-6.1,16.3-36.3,19.7-41.2
			c3.4-5,16.1-9.5,7.4-34.7"/>
		<path class="st15" d="M549.2,275.9c0,0-1.5-5-0.9-8.7c0.7-3.7,2.9-10.3,2.1-15.3c-0.9-5-7.3-9.1-14.1-8.5c-6.8,0.6-8.8,7-9.9,10.7
			c-1.1,3.7-0.9,9.3-0.7,12.3c0.3,3,2,5.4,3.1,6.1c1.1,0.6,5.4-0.2,6.2,0.6c0.7,0.8,1.3,5.5,1.3,5.5"/>
		<path class="st18" d="M552.2,280.1c0,0-0.1-2.9-1.1-4c-1-1.1-7.9-1.6-10-1.5c-2.1,0.1-7.4,2.3-8.2,2.8c-0.7,0.5,0.4,3.4,0.4,3.4
			L552.2,280.1z"/>
		<path class="st16" d="M548.9,269.7c0,0-9.3,0.2-11.3,0c-2.7-0.3-5.9-2.4-6.2-5.5c2.3-0.1,2.5-4.7,1.2-6.4c-1.2-1.7-2.8-0.7-3,1
			c-0.2,1.7,0,1.1-0.5,1.4c-0.6,0.3-1.4,0.3-1.2-2.9c0.2-2.8,0.4-3.5,1.2-5.3c0.9-1.8,1.3-1.7,2.1-2.1c-0.8-0.4-1.7-0.4-3.4-2.9
			c-1.9-2.9-1.6-5.9,1.9-8.8c0.1,0.8,1.1,2.3,3.2,2.8c4.1,1.1,11.6,0.2,15.2,2.2c1.5,0.9,2.9,2.8,2.2,4.4c0,0,3-0.5,3.2,5.3
			c0.4,11.6-3.7,12.7-4,14.5C549.4,269.1,549.9,269.3,548.9,269.7z"/>
		<g>
			<path class="st17" d="M522.4,343.6c0.9,0.3,1.7,0.8,2.6,1.1c2.2,0.6,4.5,0.3,6.7,0.1c2.3-0.2,4.6-0.4,6.9-0.6
				c12-0.5,16.1,2.3,18.1-0.5c0.4-0.5,0.6-1.4,0.4-2.4c-0.4-2.6-1.3-3.5-0.9-6.1c0.3-2.2,0.7-4.8,1.3-7.7c2-10.3,5.9-25.9,6.5-35.3
				c0.8-13.5-13.3-13.4-13.3-13.4c-20.7-1.3-28.4,4.5-29.5,13.2c-0.1,0.6-0.1,1.3-0.2,2c-0.5,8.9,2.1,27.4,3.4,38.1
				C524.7,335,520.7,343,522.4,343.6z"/>
			<path class="st18" d="M521.7,344.4c0.9,0.7,3.4,0.9,7,0.6c-3.2,0.2-6.5-1.7-5.8-3.3c0.7-1.6,2.7-5.1,2.9-8
				c0.8-10.8,0.6-41.6,1.1-41c-0.5,1-1.9,2.3-5.9,3.2c-0.1,9,1.6,24.8,2.3,34.9C523.8,340.8,518.4,341.6,521.7,344.4z"/>
		</g>
		<path class="st15" d="M479,267.3c0.1-0.5,0.7-0.3,0.9,0.2c0,0.1,0.1,0.2,0.1,0.4c-0.1-0.9-0.1-1.6-0.1-1.7
			c0.1-0.5,0.7-0.3,0.9,0.1c0-0.3,0-0.6,0-0.7c0.1-0.6,0.8-0.4,0.9,0.1c0,0.1,0.1,0.4,0.2,0.9c0-0.2,0-0.4,0-0.5
			c0.1-0.5,0.7-0.4,0.9,0c0.1,0.1,0.1,0.4,0.2,1c0.1,0.5,0.2,1.1,0.3,1.6c0.1,0.5,0.7,2.7,1.8,3c1.8,0.3,0.6-2.6,1.8-3.3
			c0.4-0.2,0.8,2.1,0.9,3.4c0,1.3,0.1,2-0.1,2.7c-0.1,0.8-0.5,1.9-0.5,2.3c0.1,0.5,0.6,1.7,0.6,1.7l-4.1,1.6c0,0-0.5-2.4-1.1-2.9
			c-1.4-1.3-2.7-2.8-3.3-4.6c-0.3-1.1-0.5-2.3-0.6-3.5C479,269.1,479,267.5,479,267.3z"/>
		<path class="st17" d="M483.2,279.2c0,0,1.4,7.7,2.7,13.9c1.1,4.8,2.4,9.8,4.7,14.3c0,0,0,0.1,0,0.1c1.3,2.8,4.7,7,6.2,7.7
			c7.7,3.5,25.4-16.7,29.4-15.5c8.4,2.2,14.6-21.1,14.6-21.1s-9.9,0.1-15.8,1.4c-6.3,1.3-23.2,21.9-24.1,21.9
			c-0.9,0.1-2.3-3-4.1-6.5c-4.2-7.8-8.9-17.7-8.9-17.7s-3.8,1.1-3.9,1.1L483.2,279.2z"/>
		<path class="st15" d="M525.9,256.8c0,0-2.9,4.3-2.6,5.2c0.4,0.9,3.2,0.9,3.2,0.9"/>
	</g>
	<g>
		<g>
			<path class="st21" d="M158,307.3c3.8,4.4,6.9,14.8,10.7,19.1c1.9,2.1,15.5,13.6,24.7,18.5c0.4-2.7,6.2-1,4.2-2.8
				c-6.4-5.6-17.5-11.4-21.3-21.7c-2.5-6.8-11.7-21.9-11.7-21.9"/>
		</g>
		<g>
			<path class="st22" d="M236,337.2h-68v-40.4c0-3.2,2.6-5.7,5.9-5.7h25.6c0.6,0,1.3,0.2,1.8,0.6l6.2,5.1c0.5,0.4,1.2,0.7,1.9,0.7
				h20.7c3.3,0,5.9,2.6,5.9,5.7V337.2z"/>
			<path class="st7" d="M230.8,331.6h-56.6c-1,0-1.7-0.8-1.7-1.7v-28.4c0-1,0.8-1.7,1.7-1.7h56.6c1,0,1.7,0.8,1.7,1.7v28.4
				C232.5,330.8,231.7,331.6,230.8,331.6z"/>
			<path class="st23" d="M232.8,348h-61.4c-1.8,0-3.3-1.5-3.3-3.3v-35.3c0-1.8,1.5-3.3,3.3-3.3h61.4c1.8,0,3.3,1.5,3.3,3.3v35.3
				C236,346.6,234.6,348,232.8,348z"/>
			<g>
				<path class="st24" d="M211.8,321h-1.3v-2.7c0-4.6-3.8-8.3-8.5-8.3c-4.7,0-8.5,3.7-8.5,8.3v2.7h-1.3c-0.9,0-1.7,0.7-1.7,1.6v12.9
					c0,2.6,2.2,4.8,4.9,4.8h13.1c2.7,0,4.9-2.1,4.9-4.8v-12.9C213.5,321.8,212.8,321,211.8,321z M196.7,318.3c0-2.9,2.4-5.2,5.4-5.2
					c3,0,5.4,2.3,5.4,5.2v2.7h-10.7V318.3z"/>
				<path class="st7" d="M205,327.6c0-1.6-1.3-2.9-3-2.9c-1.6,0-3,1.3-3,2.9c0,1.2,0.7,2.1,1.7,2.6v5.2c0,0.7,0.6,1.2,1.3,1.2
					c0.7,0,1.3-0.5,1.3-1.2v-5.2C204.3,329.8,205,328.8,205,327.6z"/>
			</g>
		</g>
		<g>
			<path class="st2" d="M107.8,472.4c0,3,19.5,5.5,43.6,5.5c24.1,0,43.6-2.5,43.6-5.5c0-3-19.5-5.5-43.6-5.5
				C127.3,466.9,107.8,469.4,107.8,472.4z"/>
		</g>
		<g>
			<path class="st25" d="M150.2,344.9L133,331.1c0,0-7.8,10.6-4.7,20.7c1.5,5,3.4,7.4,4.3,9.7c0.8,2.2,6.4,33.3,6,35.6
				c-0.4,2.3-3,8.7-4,15.4c-1.2,8.1-0.6,34.4-1.4,41.4c-0.9,7,5.8,8.1,6.1,5.7c2.8-20.2,10.6-51.8,11.6-61.9
				C151.9,387.8,151.1,369.3,150.2,344.9z"/>
			<g>
				<path class="st21" d="M150.6,364.8l-7.2,16.7c3.2,5.1,5.1,11.2,5.4,17.3c0.2,3.2-0.1,6.4,0.1,9.6c0,0.2,0,0.5,0.1,0.7
					c0.9-4.8,1.6-8.7,1.9-11.2c0.7-7.1,0.6-18.5,0.1-33.1C150.8,364.8,150.7,364.8,150.6,364.8z"/>
			</g>
			<path class="st25" d="M140.3,453.2c0,0-1.5,7.3-1,8.3c0.4,0.9,2,3.6,3.6,4.6c1.7,1,5.3,2.2,5.6,2.6c0.3,0.4,0.3,1.1-0.2,1.5
				c-1.3,1-3.7,1.6-5.2,1.4c-5-0.7-5.5-2.9-8.4-3.2c-0.5-0.1-1.4,0.7-2.8,0c-1.4-0.7-2.1-1.9-2-3.1c0.2-2,1.3-3.7,2.1-5.2
				c0.8-1.5,1.3-8.3,1.3-8.3"/>
			<path class="st26" d="M148.7,470.5c0.4-0.6,0.4-1.5,0.1-1.7c-0.5-0.3-2.1-1.3-3.1-1.8c-1-0.4-2.5-0.8-2-0.5
				c0.5,0.3-0.4,1.3-1.3,1.3c-3.1-0.1-5.4-2.1-7.2-2.5c-2.6-0.6-3.7-3.5-3.8-4c-0.5,0.3-1.6,2.7-1.8,3.4c-0.2,0.7-0.5,1.9-0.3,2.6
				c0.1,0.5,0.5,1.5,0.3,2.5c0,0,0.5,0.4,1.8,0.6c0.8,0.2,2,0,2,0l0.2-1.6c0,0,0.7,0,1.6,0.1c0.9,0.2,2.3,1,2.4,1.1
				c0.4,0.4,0.7,1.2,1.1,1.4c1.3,0.6,2.5,0.9,4.1,0.9C146.2,472.5,148.1,471.6,148.7,470.5z"/>
		</g>
		<g>
			<path class="st25" d="M174,469.2c-0.4-0.4-4.3-1-6.2-1.8c-1.8-0.7-3.9-3-4.3-4c-0.4-1-0.3-5.9-0.3-8c0.4-14.4,3.1-49.5,3.5-57.9
				c0.7-14.6-1.3-29.7-7-53.2l-21.5-16.1c0,0-6,10.9-4,21.3c1.2,6,6.3,7,7.2,9.3c0.9,2.3,13.9,40.2,13.9,40.2s-2.5,8.2-2.7,17.2
				c-0.1,7.7,3.4,30.8,4.1,39.6c0.1,1.7,0.4,5.8-0.1,7.1c-0.6,1.6-2.3,3.5-2.2,5.5c0,1.2,0.9,2.3,2.4,2.8c1.5,0.5,2.4-0.4,2.9-0.4
				c3-0.1,3.9,1.9,9.1,1.9c1.6,0,4-0.9,5.2-2.1C174.5,470.3,174.4,469.6,174,469.2z"/>
			<path class="st26" d="M174.4,471c0.3-0.7,0.2-1.6-0.1-1.7c-0.5-0.2-2.4-1-3.5-1.3c-1.1-0.3-2.7-0.4-2.1-0.2
				c0.6,0.2-0.3,1.4-1.2,1.5c-3.2,0.3-5.9-1.3-7.8-1.5c-2.7-0.2-3.7-2.9-3.9-3.4c-0.5,0.4-1.8,2.9-1.9,3.7c-0.1,0.7-0.3,2,0,2.6
				c0.2,0.5,0.7,1.4,0.7,2.4c0,0,0.6,0.3,2,0.3c0.9,0,2-0.3,2-0.3v-1.6c0,0,0.7-0.1,1.7-0.1c0.9,0,2.1,0.5,2.7,0.9
				c0.4,0.3,0.9,0.9,1.4,1c1.5,0.4,2.6,0.5,4.2,0.3C172.1,473.4,174,472.1,174.4,471z"/>
		</g>
		<g>
			<path class="st19" d="M133.7,330c-5.5,5.5-9,13.4-7.1,22.2c0.5,2.3,3.5,8.6,4.1,10.9c1.3,5.3,3.8,13,4.2,19.1
				c8.5,5,24.7,3.1,31.7-1.7c0.2-7.4-0.5-13.3-2-23.4c-2.2-15.3-4.9-18.8-7.2-24.9c-0.3-1.1-0.3-3.3-0.5-4.5"/>
		</g>
		<g>
			<path class="st17" d="M156.8,279.9c1.3,0.4,0.8,3.6,2.2,4c1,0.3,2.9-0.1,3.8,0.4c4.8,2.6,3.5,7.8,4.1,14.3c2,5,2.5,9.4,0.9,12.2
				c-2,3.4-4.1,4.4-6.5,7.3c-1.8,2.1-2.4,6.5-2.8,11.2c-0.1,0.8,0.6,2.2,0.4,3c-0.4,1.5-2.7,2-5.4,2c-6.1,0.1-15.2-2-17.9-1.9
				c-2.5,0.1-4.9-1.1-4.7-2.6c0.2-1,1.2-1.4,1.6-3.4c0.9-4.3,1.6-15.2,2.3-18.9c1.8-9.4,3.2-16.4,7.1-25.1"/>
		</g>
		<g>
			<path class="st18" d="M170.5,302.5c-1.5-2.5-3.5-4.8-5.5-7l-5.2,2.3c2.4,4.5,2.9,9.9,4,14.8c1.2,0.1,3-0.3,3-0.3
				c0.5-0.8,0.3-0.4,1-1.6C168.9,308.9,170.3,305.8,170.5,302.5z"/>
		</g>
		<path class="st25" d="M174,267.1c0.6-2.2,1-4.6,0.9-6.5c-0.1-3.7-0.6-9.2-7-11.4c-6.4-2.2-13.4-0.9-15.5,3.6
			c-2.1,4.5-1.6,11.3-1.9,14.9c-0.3,3.6-3,8-3,8l13.8,5.8c0,0,2.2-4.8,3.2-5.3c0.9-0.6,1.2,1.7,4.3,1.4c1.3-0.1,2.7-2.4,3.7-5.2
			c0-0.1,0.1-0.2,0.1-0.3c0.7,0,1.5-0.1,1.6-0.1c0.9-0.3,0.9-0.7,0.7-1.3C174.3,269.5,174.1,268.1,174,267.1z"/>
		<g>
			<path class="st25" d="M193.1,343.8c0,1.1,2.2,4,3.8,4.5c0.5,0.1,1.1,0.2,1.6,0c0.7,0.3,3.1,0.6,2.2-0.8c1.5,1.2,3.2,1.2,5.1,1.1
				c0.6,0,0.6-0.8-0.8-1.1c-1.9-0.5-3.3-1.8-4.4-3.6c0.3-0.2,0.5,0.2,1.3,0.3c0.9,0.1,1.3-0.2,1.4-0.6c0-0.3-1-0.6-1.3-0.8
				c-0.9-0.6-1.8-1.1-2.6-1.7c-1-0.6-1.6-0.9-2.8-1c-0.2,0-2.1,0.1-1.6,0.8"/>
		</g>
		<path class="st25" d="M162.1,300.9c2.3,4.6,8.3,19.8,9.2,21.5c3.7,6.9,22.4,21.9,22.4,21.9s3.2-0.5,3.2-3.6
			c-5.4-3.6-15.4-19.2-17.5-21.1c-1.4-1.2-7.4-25.2-7.4-25.2"/>
		<path class="st17" d="M167.2,284c-5.2-1.9-10.2-2-14.2-5.9c-4.1,3,4.9,20.6,7.1,21.1c2.3,0.5,5.2,10.2,5.8,11.5
			c7.2-0.2,9.9-4,9.9-4C172.8,297.9,172.3,285.9,167.2,284z"/>
		<g>
			<path class="st16" d="M163,284.5c-0.4-1.3-1.4-2.4-1.6-3.7c-0.2-1.3,0-2.9,0.8-4c0.4-0.7,1.1-1.1,1.8-1.6c2.9-2.2,3.9-4,2.9-7.3
				c-0.3-1.1-0.6-2.2-0.5-3.3c0.1-1,0.3-2.1,1.4-2.2c0.8-0.1,1.3,0.1,1.6,0.7c0.2,0.4-0.2,3.6,0.9,1.8c1-1.7,2-1.9,1.9-5.9
				c0-0.5-0.2-2.4,0.1-2.7c1.9,1.4,2.5,3.7,2.7,5.4c1.4-0.6,1.8-2.6,1.8-3.4c0-1.6-0.2-2.8-0.8-4c-2.5-5.2-5.1-6.2-7.4-7.1
				c-2.2-0.9-4.4-1.8-6.8-1.7c-2.4,0.1-5.3,0.7-5.9,2.5c-3.3-0.8-5.1,2-5.9,3c-1.1,1.4-2,3-2.5,4.7c-0.8,2.5-1,5.2-1.7,7.7
				c-0.5,2.1-1.5,4.2-3.1,5.7c-1.6,1.4-3.8,1.5-5.5,2.8c-2.2,1.6-3.4,4.3-3.3,7c0.1,2.7,1.5,5.6-0.1,8c-0.5,0.8-1.3,1.4-1.8,2.2
				c-1.2,1.9-1.1,4.4,0.1,6.3c1.2,1.9,3.5,4.1,5.6,4.7c2.2,0.6,3.8,0.9,6.1,0.8c4-0.2,7.3,0,11.5-3.5c2.4-2,0.9-3.1,3.1-5.2
				c1.3-1.2,3.1-1.8,4-3.3c0.8-1.3,0.9-2.8,0.6-4.3C163,284.6,163,284.5,163,284.5z"/>
		</g>
	</g>
	<g>
		<g>
			<path class="st7" d="M508.1,500.1c-1,0-2,0-3.1,0c-1.3,0-2.6,1.1-2.5,2.5c0.1,1.4,1.1,2.5,2.5,2.5c1,0,2,0,3.1,0
				c1.3,0,2.6-1.1,2.5-2.5C510.6,501.2,509.5,500.1,508.1,500.1L508.1,500.1z"/>
		</g>
	</g>
	<g>
		<g>
			<path class="st7" d="M607.8,97.7c-16.7,0-27.6,16.4-27.6,16.4s10.9,16.4,27.6,16.4c16.7,0,27.6-16.4,27.6-16.4
				S624.5,97.7,607.8,97.7z"/>
			<linearGradient id="SVGID_4_" gradientUnits="userSpaceOnUse" x1="578.139" y1="114.1653" x2="637.538" y2="114.1653">
				<stop  offset="0" style="stop-color:#F84E49"/>
				<stop  offset="1" style="stop-color:#EF3598"/>
			</linearGradient>
			<path class="st27" d="M607.8,132.3c-17.4,0-28.6-16.5-29.1-17.2l-0.6-0.9l0.6-0.9c0.5-0.7,11.6-17.2,29.1-17.2
				c17.4,0,28.6,16.5,29.1,17.2l0.6,0.9l-0.6,0.9C636.4,115.8,625.3,132.3,607.8,132.3z M582.4,114.2c2.6,3.4,12.2,14.7,25.4,14.7
				c13.2,0,22.8-11.3,25.4-14.7c-2.6-3.4-12.2-14.7-25.4-14.7C594.6,99.5,585,110.8,582.4,114.2z"/>
		</g>
		<linearGradient id="SVGID_5_" gradientUnits="userSpaceOnUse" x1="597.2789" y1="114.1653" x2="618.3987" y2="114.1653">
			<stop  offset="0" style="stop-color:#F84E49"/>
			<stop  offset="1" style="stop-color:#EF3598"/>
		</linearGradient>
		<path class="st28" d="M618.4,114.2c0,5.7-4.7,10.3-10.6,10.3c-5.8,0-10.6-4.6-10.6-10.3c0-5.7,4.7-10.3,10.6-10.3
			C613.7,103.9,618.4,108.5,618.4,114.2z"/>
		<path class="st7" d="M608.6,111.1c0,2.3-1.9,4.1-4.2,4.1c-2.3,0-4.2-1.8-4.2-4.1c0-2.3,1.9-4.1,4.2-4.1
			C606.7,106.9,608.6,108.8,608.6,111.1z"/>
	</g>
	<g>
		<linearGradient id="SVGID_6_" gradientUnits="userSpaceOnUse" x1="88.5946" y1="190.6221" x2="142.0504" y2="190.6221">
			<stop  offset="0" style="stop-color:#F84E49"/>
			<stop  offset="1" style="stop-color:#EF3598"/>
		</linearGradient>
		<path class="st29" d="M138.7,169.2H91.9c-1.8,0-3.3,1.4-3.3,3.2v29.7c0,1.8,1.5,3.2,3.3,3.2h4.3l10.6,6.8l-1.4-6.8h33.3
			c1.8,0,3.3-1.4,3.3-3.2v-29.7C142.1,170.6,140.6,169.2,138.7,169.2z"/>
		<g>
			<path class="st7" d="M119.2,197.1c0,2.1-1.8,3.8-3.9,3.8s-3.9-1.7-3.9-3.8s1.8-3.8,3.9-3.8S119.2,195,119.2,197.1z"/>
			<g>
				<defs>
					<polyline id="SVGID_7_" points="115.3,197.1 145.4,169.3 115.3,169.3 85.2,169.3 115.3,197.1 					"/>
				</defs>
				<clipPath id="SVGID_8_">
					<use xlink:href="#SVGID_7_"  style="overflow:visible;"/>
				</clipPath>
				<g class="st30">
					<g>
						<path class="st7" d="M115.3,210.1c-7.4,0-13.3-5.8-13.3-13c0-7.2,6-13,13.3-13c7.4,0,13.3,5.8,13.3,13
							C128.7,204.3,122.7,210.1,115.3,210.1z M115.3,187.8c-5.3,0-9.6,4.2-9.6,9.4c0,5.2,4.3,9.4,9.6,9.4c5.3,0,9.6-4.2,9.6-9.4
							C124.9,192,120.6,187.8,115.3,187.8z"/>
					</g>
					<g>
						<path class="st7" d="M115.3,218.7c-12.2,0-22.1-9.7-22.1-21.5c0-11.9,9.9-21.5,22.1-21.5s22.1,9.7,22.1,21.5
							C137.5,209,127.5,218.7,115.3,218.7z M115.3,179.2c-10.2,0-18.4,8-18.4,17.9c0,9.9,8.3,17.9,18.4,17.9
							c10.2,0,18.4-8,18.4-17.9C133.7,187.2,125.5,179.2,115.3,179.2z"/>
					</g>
				</g>
			</g>
		</g>
	</g>
	<g>
		<g>
			<path class="st31" d="M358.1,121.2h-60.8c-1.1,0-2-0.9-2-2V79.3c0-1.1,0.9-2,2-2h60.8c1.1,0,2,0.9,2,2v39.8
				C360.1,120.3,359.2,121.2,358.1,121.2z"/>
			<polyline class="st31" points="339.9,120.2 338.1,129.4 352.5,120.2 			"/>
		</g>
		<g>
			<g>
				<path class="st7" d="M328.5,114.2c-8.2,0-14.8-6.5-14.8-14.4c0-7.9,6.6-14.4,14.8-14.4s14.8,6.5,14.8,14.4
					C343.3,107.7,336.6,114.2,328.5,114.2z M328.5,86.8c-7.3,0-13.3,5.8-13.3,12.9s6,12.9,13.3,12.9c7.3,0,13.3-5.8,13.3-12.9
					S335.8,86.8,328.5,86.8z"/>
			</g>
			<g>
				<path class="st7" d="M328.5,114.2c-3.7,0-6.6-6.3-6.6-14.4c0-8.1,2.9-14.4,6.6-14.4c3.7,0,6.6,6.3,6.6,14.4
					C335.1,107.9,332.2,114.2,328.5,114.2z M328.5,86.8c-2.4,0-5.1,5.3-5.1,12.9c0,7.6,2.7,12.9,5.1,12.9c2.4,0,5.1-5.3,5.1-12.9
					C333.6,92.1,330.9,86.8,328.5,86.8z"/>
			</g>
			<g>
				<rect x="314.4" y="99" class="st7" width="28.1" height="1.5"/>
			</g>
			<g>
				<g>
					<path class="st7" d="M328.5,94.4c-8.2,0-11-2.8-11.1-2.9l1.1-1l-0.5,0.5l0.5-0.5c0,0,2.6,2.5,10.1,2.5c7.4,0,10-2.4,10.1-2.5
						l1.1,1C339.5,91.6,336.6,94.4,328.5,94.4z"/>
				</g>
				<g>
					<path class="st7" d="M318.4,109.1l-1.1-1c0.1-0.1,3-2.9,11.1-2.9s11,2.8,11.1,2.9l-1.1,1c0,0-2.6-2.5-10.1-2.5
						C321,106.6,318.4,109,318.4,109.1z"/>
				</g>
			</g>
		</g>
	</g>
	<g>
		<g>
			<linearGradient id="SVGID_9_" gradientUnits="userSpaceOnUse" x1="466.4003" y1="42.1383" x2="569.8221" y2="42.1383">
				<stop  offset="0" style="stop-color:#F84E49"/>
				<stop  offset="1" style="stop-color:#EF3598"/>
			</linearGradient>
			<path class="st32" d="M566.6,77.1h-97c-1.8,0-3.2-1.4-3.2-3.2V10.4c0-1.8,1.4-3.2,3.2-3.2h97c1.8,0,3.2,1.4,3.2,3.2v63.6
				C569.8,75.7,568.4,77.1,566.6,77.1z"/>
			<linearGradient id="SVGID_10_" gradientUnits="userSpaceOnUse" x1="534.6334" y1="82.8668" x2="557.6904" y2="82.8668">
				<stop  offset="0" style="stop-color:#F84E49"/>
				<stop  offset="1" style="stop-color:#EF3598"/>
			</linearGradient>
			<polyline class="st33" points="537.6,75.5 534.6,90.2 557.7,75.5 			"/>
		</g>
		<g>
			<g>
				<path class="st7" d="M534.6,58.7c-10.1,0-18.4-8-18.4-17.9s8.3-17.9,18.4-17.9S553,31,553,40.8S544.7,58.7,534.6,58.7z
					 M534.6,30.6c-5.8,0-10.5,4.6-10.5,10.2s4.7,10.2,10.5,10.2s10.5-4.6,10.5-10.2S540.4,30.6,534.6,30.6z"/>
			</g>
			<g>
				<polygon class="st7" points="491.1,52.7 483.2,52.7 483.2,37 520.1,37 520.1,44.7 491.1,44.7 				"/>
			</g>
			<g>
				<rect x="495.5" y="40.8" class="st7" width="7.9" height="8.9"/>
			</g>
		</g>
	</g>
</g>
</svg>
